<?xml version="1.0" encoding="utf-8"?>
<!-- Generator: Adobe Illustrator 26.2.1, SVG Export Plug-In . SVG Version: 6.00 Build 0)  -->
<svg version="1.1" id="Layer_1" xmlns="http://www.w3.org/2000/svg" xmlns:xlink="http://www.w3.org/1999/xlink" x="0px" y="0px"
	 viewBox="0 0 400 116" style="enable-background:new 0 0 400 116;" xml:space="preserve">
<g>
	<path d="M221.6,56.7c0,29.9-24.1,54-54,54h-51.3l10.8-16.2V18.9L116.4,2.7h51.3C197.5,2.7,221.6,26.8,221.6,56.7z M189.5,56.7
		c0-14.8-9.6-27-21.6-27h-8.3v54h8.3C179.8,83.6,189.5,71.5,189.5,56.7z"/>
	<path d="M267.9,18.9v75.5l10.8,16.2h-54l10.8-16.2V18.9L224.8,2.7h54L267.9,18.9z"/>
	<path d="M389.2,18.9V116l-67.4-58.4v36.8l10.8,16.2H284l10.8-16.2V18.9L284,2.7h25.6l52.6,48.6V18.9L351.4,2.7H400L389.2,18.9z"/>
	<g>
		<path d="M70.8,76.4H37.6V43.2L13.9,19.5C5.2,29.4,0,42.4,0,56.7c0,31.2,25.2,56.7,56.7,56.7c14.2,0,27.2-5.3,37.1-13.9L70.8,76.4z
			"/>
		<path d="M43.1,37.7h33.2v33.2l23,23c8.7-10,14-23,14-37.2C113.3,25.4,87.9,0,56.7,0C42.3,0,29.3,5.3,19.4,14L43.1,37.7z"/>
	</g>
</g>
</svg>
